<svg width="20" height="20" viewBox="0 0 20 20" fill="none" xmlns="http://www.w3.org/2000/svg">
<g id="star 1" clip-path="url(#clip0_1_2160)">
<path id="Vector" d="M19.9824 7.72474C19.9402 7.59515 19.8281 7.50064 19.6932 7.48095L13.2171 6.53978L10.3209 0.671562C10.2608 0.549128 10.1362 0.471802 10.0002 0.471802C9.86412 0.471802 9.73918 0.549128 9.6794 0.671562L6.78288 6.54014L0.306783 7.48131C0.171819 7.501 0.0601256 7.59515 0.0175245 7.7251C-0.0243607 7.85434 0.0103646 7.99682 0.108097 8.09169L4.79458 12.6597L3.68803 19.11C3.66512 19.2442 3.72025 19.3799 3.83015 19.4601C3.94077 19.541 4.08719 19.5514 4.20712 19.4873L10.0002 16.4422L15.7925 19.4873C15.8448 19.5149 15.9024 19.5285 15.9593 19.5285C16.0334 19.5285 16.1072 19.5056 16.1698 19.4601C16.2801 19.3799 16.3352 19.2442 16.3119 19.11L15.2057 12.66L19.8922 8.09169C19.9896 7.9961 20.0247 7.85398 19.9824 7.72474Z" fill="white"/>
</g>
<defs>
<clipPath id="clip0_1_2160">
<rect width="20" height="20" fill="white"/>
</clipPath>
</defs>
</svg>
