<svg width="16" height="16" viewBox="0 0 16 16" fill="none" xmlns="http://www.w3.org/2000/svg">
<path d="M15.9687 14.3105L14.6667 2.06057C14.6667 1.29041 14.07 0.666626 13.3333 0.666626H8H2.66667C1.93 0.666626 1.33333 1.29041 1.33333 2.06057L0.0313333 14.3105C0.012 14.406 0 14.5043 0 14.606C0 15.3762 0.596667 16 1.33333 16H8H14.6667C15.4033 16 16 15.3762 16 14.606C16 14.5043 15.988 14.406 15.9687 14.3105ZM11.3333 4.08735V4.84844C11.3333 6.76999 9.838 8.33329 8 8.33329C6.162 8.33329 4.66667 6.76999 4.66667 4.84844V4.08735C4.27933 3.94378 4 3.56044 4 3.10602C4 2.52893 4.448 2.06057 5 2.06057C5.552 2.06057 6 2.52893 6 3.10602V4.84844C6 6.00123 6.89733 6.93935 8 6.93935C9.10267 6.93935 10 6.00123 10 4.84844V3.10602C10 2.52893 10.448 2.06057 11 2.06057C11.552 2.06057 12 2.52893 12 3.10602C12 3.56044 11.7207 3.94378 11.3333 4.08735Z" fill="#303030"/>
</svg>
